HIERARCHY
ROOT Hips
{
  OFFSET 53.4076 91.5813 4.76195
  CHANNELS 6 Xposition Yposition Zposition Zrotation Xrotation Yrotation
  JOINT spine
  {
    OFFSET 0 6.84637 0.3937
    CHANNELS 3 Zrotation Xrotation Yrotation
    JOINT spine1
    {
      OFFSET 0 9.49621 0
      CHANNELS 3 Zrotation Xrotation Yrotation
      JOINT spine2
      {
        OFFSET 0 9.09909 0
        CHANNELS 3 Zrotation Xrotation Yrotation
        JOINT Neck
        {
          OFFSET 0 23.3612 1.11378
          CHANNELS 3 Zrotation Xrotation Yrotation
          JOINT Head
          {
            OFFSET 0 7.05802 0
            CHANNELS 3 Zrotation Xrotation Yrotation
            End Site
            {
              OFFSET 0 17.0844 -5.63419
            }
          }
        }
        JOINT RightShoulder
        {
          OFFSET -3.83136 9.82631 -0.533491
          CHANNELS 3 Zrotation Xrotation Yrotation
          JOINT RightArm
          {
            OFFSET 0 12.8881 0
            CHANNELS 3 Zrotation Xrotation Yrotation
            JOINT RightArmRoll
            {
              OFFSET 0 6.50617 0
              CHANNELS 3 Zrotation Xrotation Yrotation
              JOINT RightForeArm
              {
                OFFSET 0 18.9501 0
                CHANNELS 3 Zrotation Xrotation Yrotation
                JOINT RightForeArmRoll
                {
                  OFFSET 0 7.30093 0
                  CHANNELS 3 Zrotation Xrotation Yrotation
                  JOINT RightHand
                  {
                    OFFSET 0 14.6514 0
                    CHANNELS 3 Zrotation Xrotation Yrotation
                    End Site
                    {
                      OFFSET 0 0 0
                    }
                  }
                }
              }
            }
          }
        }
        JOINT LeftShoulder
        {
          OFFSET 3.83136 9.82631 -0.533491
          CHANNELS 3 Zrotation Xrotation Yrotation
          JOINT LeftArm
          {
            OFFSET 0 12.8881 0
            CHANNELS 3 Zrotation Xrotation Yrotation
            JOINT LeftArmRoll
            {
              OFFSET 0 6.50617 0
              CHANNELS 3 Zrotation Xrotation Yrotation
              JOINT LeftForeArm
              {
                OFFSET 0 18.9501 0
                CHANNELS 3 Zrotation Xrotation Yrotation
                JOINT LeftForeArmRoll
                {
                  OFFSET 0 7.30093 0
                  CHANNELS 3 Zrotation Xrotation Yrotation
                  JOINT LeftHand
                  {
                    OFFSET 0 14.6514 0
                    CHANNELS 3 Zrotation Xrotation Yrotation
                    End Site
                    {
                      OFFSET 0 0 0
                    }
                  }
                }
              }
            }
          }
        }
      }
    }
  }
  JOINT RightUpLeg
  {
    OFFSET -6.06837 -1.11278 -0.933477
    CHANNELS 3 Zrotation Xrotation Yrotation
    JOINT RightUpLegRoll
    {
      OFFSET 0 17.1796 0
      CHANNELS 3 Zrotation Xrotation Yrotation
      JOINT RightLeg
      {
        OFFSET 0 -21.2743 0
        CHANNELS 3 Zrotation Xrotation Yrotation
        JOINT RightLegRoll
        {
          OFFSET 0 21.3439 0
          CHANNELS 3 Zrotation Xrotation Yrotation
          JOINT RightFoot
          {
            OFFSET 0 17.7652 0
            CHANNELS 3 Zrotation Xrotation Yrotation
            JOINT RightToeBase
            {
              OFFSET 0 14.8508 0
              CHANNELS 3 Zrotation Xrotation Yrotation
              End Site
              {
                OFFSET 0.00629469 7.19214 -0.829005
              }
            }
          }
        }
      }
    }
  }
  JOINT LeftUpLeg
  {
    OFFSET 6.06837 -1.11278 -0.933477
    CHANNELS 3 Zrotation Xrotation Yrotation
    JOINT LeftUpLegRoll
    {
      OFFSET 0 17.1797 0
      CHANNELS 3 Zrotation Xrotation Yrotation
      JOINT LeftLeg
      {
        OFFSET 0 21.2742 0
        CHANNELS 3 Zrotation Xrotation Yrotation
        JOINT LeftLegRoll
        {
          OFFSET 0 21.5412 0
          CHANNELS 3 Zrotation Xrotation Yrotation
          JOINT LeftFoot
          {
            OFFSET 0 17.5679 0
            CHANNELS 3 Zrotation Xrotation Yrotation
            JOINT LeftToeBase
            {
              OFFSET 0 14.8508 0
              CHANNELS 3 Zrotation Xrotation Yrotation
              End Site
              {
                OFFSET -0.0282102 7.19214 -0.829005
              }
            }
          }
        }
      }
    }
  }
}
MOTION
Frames: 11
Frame Time: 0.00208333
53.8512 91.4611 5.72005 0.0472673 -4.24993 -0.830603 0.141697 -1.72816 -0.09843 0.270921 0.546193 -0.21074 0.273316 2.19126 -0.215349 -4.8693 32.3367 2.08334 2.65442 -11.0492 0.341104 73.9487 8.66265 2.14923 99.3311 3.34141 13.8913 4.14838e-007 4.28833e-007 -3.30951e-006 11.6399 10.984 -2.075 -2.41249e-006 4.06514e-006 -3 8.02887 -4.95144 0.697675 -71.5729 4.15425 -0.504264 -103.474 9.69697 -22.886 -2.17106e-005 -2.65082e-006 7.29715e-006 -10.9061 1.27866 0.374089 1.03742e-005 -1.98977e-006 3.00995 -8.02891 -4.95148 -0.697689 175.376 -2.07785 1.70926 180 7.01529e-015 178.847 177.569 4.63338 179.973 -1.5219e-006 7.90525e-006 0.0414881 -18.6252 67.8599 19.4258 8.13649 25.2327 -3.48773 -175.874 -5.61395 0.860139 4.54188e-006 -4.6773e-006 -1.21721 -0.354079 -4.88638 0.143601 -2.32467e-006 -3.52045e-006 -0.0255202 18.5427 67.7556 -19.3401 -8.13649 25.2327 3.48774 
53.8596 91.463 5.72815 0.0466418 -4.24915 -0.827382 0.142127 -1.72763 -0.0984183 0.272359 0.547224 -0.210919 0.274465 2.19229 -0.215541 -4.86634 32.3159 2.08015 2.65285 -11.0329 0.339414 73.9456 8.66549 2.15115 99.3228 3.34025 13.8865 4.14838e-007 4.28833e-007 -3.30951e-006 11.6474 10.9912 -2.07669 -2.41249e-006 4.06514e-006 -3 8.02887 -4.95144 0.697675 -71.577 4.15861 -0.50572 -103.461 9.68598 -22.8733 -2.17106e-005 -2.65082e-006 7.29715e-006 -10.9247 1.30087 0.378083 1.03742e-005 -1.98977e-006 3.00995 -8.02891 -4.95148 -0.697689 175.377 -2.074 1.70956 180 7.01529e-015 178.847 177.569 4.64053 179.973 -1.5219e-006 7.90525e-006 0.0414881 -18.6265 67.8615 19.4272 8.13649 25.2327 -3.48773 -175.873 -5.60989 0.856718 4.54188e-006 -4.6773e-006 -1.21721 -0.358574 -4.88632 0.143218 -2.32467e-006 -3.52045e-006 -0.0255486 18.5427 67.7556 -19.3401 -8.13649 25.2327 3.48774 
53.8529 91.4618 5.7242 0.0461508 -4.24813 -0.823951 0.14252 -1.72713 -0.0984077 0.273755 0.548155 -0.211108 0.275551 2.19322 -0.215742 -4.86262 32.295 2.0766 2.65054 -11.0162 0.337589 73.9426 8.66814 2.15296 99.3148 3.33933 13.8821 4.14838e-007 4.28833e-007 -3.30951e-006 11.6548 10.9976 -2.0783 -2.41249e-006 4.06514e-006 -3 8.02887 -4.95144 0.697675 -71.5806 4.16315 -0.507345 -103.45 9.67489 -22.8609 -2.17106e-005 -2.65082e-006 7.29715e-006 -10.9426 1.32333 0.382147 1.03742e-005 -1.98977e-006 3.00995 -8.02891 -4.95148 -0.697689 175.377 -2.06968 1.71009 180 7.01529e-015 178.847 177.568 4.64816 179.974 -1.5219e-006 7.90525e-006 0.0414881 -18.6279 67.8632 19.4288 8.13649 25.2327 -3.48773 -175.872 -5.60557 0.85354 4.54188e-006 -4.6773e-006 -1.21721 -0.362885 -4.88641 0.142848 -2.32467e-006 -3.52045e-006 -0.0255776 18.5426 67.7554 -19.3399 -8.13649 25.2327 3.48774 
53.8484 91.4625 5.72823 0.0457537 -4.24693 -0.820373 0.142887 -1.72666 -0.0983977 0.275121 0.549014 -0.211302 0.276593 2.19408 -0.215947 -4.85835 32.2739 2.07282 2.64771 -10.9993 0.335668 73.9396 8.67067 2.15471 99.307 3.33859 13.8778 4.14838e-007 4.28833e-007 -3.30951e-006 11.6622 11.0036 -2.07986 -2.41249e-006 4.06514e-006 -3 8.02887 -4.95144 0.697675 -71.5839 4.16782 -0.509089 -103.44 9.66371 -22.8489 -2.17106e-005 -2.65082e-006 7.29715e-006 -10.9601 1.34597 0.386258 1.03742e-005 -1.98977e-006 3.00995 -8.02891 -4.95148 -0.697689 175.377 -2.06504 1.71077 180 7.01529e-015 178.847 177.567 4.65613 179.974 -1.5219e-006 7.90525e-006 0.0414881 -18.6295 67.8651 19.4304 8.13649 25.2327 -3.48773 -175.871 -5.60106 0.850533 4.54188e-006 -4.6773e-006 -1.21721 -0.367068 -4.88661 0.142489 -2.32467e-006 -3.52045e-006 -0.0256068 18.5424 67.7553 -19.3398 -8.13649 25.2327 3.48774 
53.8544 91.4609 5.72775 0.0454102 -4.24563 -0.816711 0.143239 -1.72621 -0.0983881 0.276471 0.549833 -0.2115 0.277611 2.1949 -0.216156 -4.85379 32.2528 2.0689 2.64459 -10.9823 0.333693 73.9366 8.67311 2.15643 99.2993 3.33794 13.8737 4.14838e-007 4.28833e-007 -3.30951e-006 11.6694 11.0093 -2.08138 -2.41249e-006 4.06514e-006 -3 8.02887 -4.95144 0.697675 -71.5869 4.17257 -0.5109 -103.43 9.65249 -22.8371 -2.17106e-005 -2.65082e-006 7.29715e-006 -10.9773 1.36871 0.390397 1.03742e-005 -1.98977e-006 3.00995 -8.02891 -4.95148 -0.697689 175.377 -2.0602 1.71154 180 7.01529e-015 178.847 177.566 4.66426 179.974 -1.5219e-006 7.90525e-006 0.0414881 -18.6311 67.8671 19.4322 8.13649 25.2327 -3.48773 -175.87 -5.59645 0.847623 4.54188e-006 -4.6773e-006 -1.21721 -0.371176 -4.88687 0.142135 -2.32467e-006 -3.52045e-006 -0.0256362 18.5423 67.7551 -19.3396 -8.13649 25.2327 3.48774 
53.8571 91.4601 5.71923 0.04508 -4.24431 -0.813028 0.143587 -1.72576 -0.0983786 0.277816 0.550642 -0.211699 0.278622 2.19571 -0.216365 -4.84915 32.2316 2.06494 2.64139 -10.9652 0.331705 73.9337 8.67554 2.15813 99.2916 3.33732 13.8696 4.14838e-007 4.28833e-007 -3.30951e-006 11.6767 11.0149 -2.0829 -2.41249e-006 4.06514e-006 -3 8.02887 -4.95144 0.697675 -71.5899 4.17734 -0.512729 -103.42 9.64126 -22.8253 -2.17106e-005 -2.65082e-006 7.29715e-006 -10.9945 1.39148 0.394544 1.03742e-005 -1.98977e-006 3.00995 -8.02891 -4.95148 -0.697689 175.377 -2.05532 1.71234 180 7.01529e-015 178.847 177.565 4.67245 179.975 -1.5219e-006 7.90525e-006 0.0414881 -18.6327 67.869 19.434 8.13649 25.2327 -3.48773 -175.869 -5.59181 0.844737 4.54188e-006 -4.6773e-006 -1.21721 -0.375266 -4.88714 0.141782 -2.32467e-006 -3.52045e-006 -0.0256657 18.5421 67.7549 -19.3395 -8.13649 25.2327 3.48774 
53.8534 91.4642 5.72091 0.0447228 -4.24304 -0.809388 0.143943 -1.72531 -0.0983689 0.279169 0.551471 -0.211896 0.279646 2.19654 -0.216573 -4.84467 32.2105 2.06106 2.63835 -10.9482 0.329744 73.9307 8.678 2.15985 99.2838 3.33665 13.8654 4.14838e-007 4.28833e-007 -3.30951e-006 11.684 11.0207 -2.08444 -2.41249e-006 4.06514e-006 -3 8.02887 -4.95144 0.697675 -71.593 4.18207 -0.514524 -103.41 9.63004 -22.8134 -2.17106e-005 -2.65082e-006 7.29715e-006 -11.0117 1.4142 0.398677 1.03742e-005 -1.98977e-006 3.00995 -8.02891 -4.95148 -0.697689 175.377 -2.05054 1.71308 180 7.01529e-015 178.847 177.564 4.68056 179.975 -1.5219e-006 7.90525e-006 0.0414881 -18.6343 67.871 19.4357 8.13649 25.2327 -3.48773 -175.868 -5.58722 0.841803 4.54188e-006 -4.6773e-006 -1.21721 -0.379393 -4.88738 0.141427 -2.32467e-006 -3.52045e-006 -0.0256951 18.542 67.7547 -19.3393 -8.13649 25.2327 3.48774 
53.8521 91.4629 5.71912 0.0442982 -4.24189 -0.805852 0.144317 -1.72483 -0.0983587 0.280544 0.552351 -0.212089 0.280701 2.19741 -0.216778 -4.84058 32.1895 2.05735 2.63567 -10.9314 0.327851 73.9277 8.68056 2.16162 99.2759 3.33586 13.8611 4.14838e-007 4.28833e-007 -3.30951e-006 11.6913 11.0268 -2.08601 -2.41249e-006 4.06514e-006 -3 8.02887 -4.95144 0.697675 -71.5964 4.18671 -0.516234 -103.399 9.61888 -22.8013 -2.17106e-005 -2.65082e-006 7.29715e-006 -11.0294 1.43679 0.402775 1.03742e-005 -1.98977e-006 3.00995 -8.02891 -4.95148 -0.697689 175.377 -2.04599 1.71372 180 7.01529e-015 178.847 177.564 4.68843 179.976 -1.5219e-006 7.90525e-006 0.0414881 -18.6359 67.8728 19.4373 8.13649 25.2327 -3.48773 -175.867 -5.58277 0.838748 4.54188e-006 -4.6773e-006 -1.21721 -0.383612 -4.88755 0.141065 -2.32467e-006 -3.52045e-006 -0.0257242 18.5419 67.7546 -19.3392 -8.13649 25.2327 3.48774 
53.859 91.4618 5.71896 0.043766 -4.24094 -0.802484 0.144721 -1.72433 -0.0983477 0.281953 0.553312 -0.212275 0.281805 2.19837 -0.216976 -4.8371 32.1686 2.05393 2.63359 -10.9148 0.326068 73.9247 8.68327 2.16347 99.2679 3.33487 13.8565 4.14838e-007 4.28833e-007 -3.30951e-006 11.6988 11.0334 -2.08764 -2.41249e-006 4.06514e-006 -3 8.02887 -4.95144 0.697675 -71.6001 4.1912 -0.517808 -103.387 9.6078 -22.7889 -2.17106e-005 -2.65082e-006 7.29715e-006 -11.0475 1.45918 0.406818 1.03742e-005 -1.98977e-006 3.00995 -8.02891 -4.95148 -0.697689 175.377 -2.04181 1.71418 180 7.01529e-015 178.847 177.563 4.69589 179.976 -1.5219e-006 7.90525e-006 0.0414881 -18.6372 67.8745 19.4388 8.13649 25.2327 -3.48773 -175.866 -5.57852 0.835497 4.54188e-006 -4.6773e-006 -1.21721 -0.387979 -4.8876 0.140691 -2.32467e-006 -3.52045e-006 -0.025753 18.5418 67.7545 -19.3391 -8.13649 25.2327 3.48774 
53.8585 91.4635 5.71594 0.0430859 -4.24026 -0.799347 0.145166 -1.72377 -0.0983357 0.283408 0.554384 -0.212451 0.282978 2.19945 -0.217165 -4.83447 32.1479 2.05089 2.63233 -10.8986 0.324435 73.9216 8.68619 2.16542 99.2595 3.33361 13.8517 4.14838e-007 4.28833e-007 -3.30951e-006 11.7063 11.0409 -2.08936 -2.41249e-006 4.06514e-006 -3 8.02887 -4.95144 0.697675 -71.6045 4.19547 -0.519196 -103.374 9.59684 -22.7759 -2.17106e-005 -2.65082e-006 7.29715e-006 -11.0663 1.48128 0.410786 1.03742e-005 -1.98977e-006 3.00995 -8.02891 -4.95148 -0.697689 175.378 -2.03815 1.71439 180 7.01529e-015 178.847 177.562 4.70287 179.976 -1.5219e-006 7.90525e-006 0.0414881 -18.6384 67.8759 19.4402 8.13649 25.2327 -3.48773 -175.865 -5.57457 0.831979 4.54188e-006 -4.6773e-006 -1.21721 -0.392547 -4.88748 0.140302 -2.32467e-006 -3.52045e-006 -0.0257813 18.5417 67.7544 -19.339 -8.13649 25.2327 3.48774 
53.8576 91.4603 5.715 0.0422177 -4.23992 -0.796503 0.145664 -1.72316 -0.0983223 0.284923 0.555598 -0.212614 0.284239 2.20066 -0.217344 -4.83292 32.1274 2.04833 2.63211 -10.8829 0.322993 73.9183 8.68937 2.1675 99.2507 3.332 13.8465 4.14838e-007 4.28833e-007 -3.30951e-006 11.7141 11.0493 -2.09119 -2.41249e-006 4.06514e-006 -3 8.02887 -4.95144 0.697675 -71.6095 4.19949 -0.520346 -103.36 9.58602 -22.7623 -2.17106e-005 -2.65082e-006 7.29715e-006 -11.0861 1.50303 0.414657 1.03742e-005 -1.98977e-006 3.00995 -8.02891 -4.95148 -0.697689 175.379 -2.03515 1.71429 180 7.01529e-015 178.847 177.562 4.70917 179.977 -1.5219e-006 7.90525e-006 0.0414881 -18.6394 67.8771 19.4412 8.13649 25.2327 -3.48773 -175.863 -5.57099 0.82812 4.54188e-006 -4.6773e-006 -1.21721 -0.397374 -4.88715 0.139893 -2.32467e-006 -3.52045e-006 -0.0258089 18.5417 67.7544 -19.339 -8.13649 25.2327 3.48774 
